<svg width="37" height="41" viewBox="0 0 37 41" fill="none" xmlns="http://www.w3.org/2000/svg">
<path d="M29.0944 12.6927L13.9964 38.7815C12.4665 41.4253 9.07805 40.6809 8.1835 37.4948L0.645773 10.6982C0.439624 10.1324 0.358805 9.5206 0.410025 8.91337C0.461249 8.30629 0.643031 7.72133 0.94029 7.20713C1.23755 6.69307 1.64171 6.26445 2.11923 5.95713C2.59675 5.64982 3.13386 5.47245 3.68597 5.43985L26.3206 6.15192C29.0073 6.23625 30.6244 10.0489 29.0944 12.6927Z" fill="#1DACE3"/>
<path d="M33.2878 20.6126L7.17729 36.6621C6.57996 37.029 5.90234 37.2068 5.21918 37.176C4.53601 37.1451 3.87385 36.9068 3.30571 36.4873C2.73757 36.0677 2.28551 35.4833 1.9994 34.7985C1.71329 34.1136 1.60424 33.3549 1.68428 32.606L4.67201 4.65488C4.74082 4.01144 4.94713 3.39511 5.27399 2.85657C5.60088 2.31818 6.03897 1.87302 6.55225 1.55761C7.06554 1.24234 7.63935 1.06579 8.22654 1.04275C8.81371 1.01972 9.39748 1.1507 9.92981 1.42483L33.0528 13.3336C33.6707 13.6535 34.1967 14.1551 34.5729 14.7832C34.9491 15.4114 35.161 16.1416 35.1853 16.894C35.2096 17.6463 35.0454 18.3914 34.7107 19.0475C34.3758 19.7036 33.8835 20.2451 33.2878 20.6126Z" fill="#FB6908"/>
<path d="M4.58366 5.47257L3.09422 19.406L7.83511 36.2538L19.6607 28.9874L29.0942 12.6927C29.2999 12.3333 29.4537 11.9408 29.55 11.5293L18.6436 5.91216L4.58366 5.47257Z" fill="#001A49"/>
</svg>
